<?xml version="1.0" encoding="UTF-8"?>
<svg xmlns="http://www.w3.org/2000/svg" xmlns:xlink="http://www.w3.org/1999/xlink" width="34px" height="34px" viewBox="0 0 34 34" version="1.1">
<g id="surface1">
<path style=" stroke:none;fill-rule:nonzero;fill:rgb(0%,0%,0%);fill-opacity:1;" d="M 14.078125 27.425781 C 13.941406 27.425781 13.804688 27.375 13.703125 27.269531 L 3.675781 17.242188 C 3.582031 17.148438 3.527344 17.027344 3.519531 16.902344 C 3.519531 16.867188 3.519531 16.832031 3.523438 16.800781 C 3.535156 16.699219 3.578125 16.601562 3.648438 16.519531 C 3.65625 16.507812 3.667969 16.5 3.679688 16.488281 L 13.703125 6.464844 C 13.910156 6.257812 14.246094 6.257812 14.453125 6.464844 C 14.660156 6.671875 14.660156 7.007812 14.453125 7.214844 L 5.332031 16.335938 L 30.480469 16.335938 C 30.773438 16.335938 31.011719 16.574219 31.011719 16.867188 C 31.011719 17.160156 30.773438 17.398438 30.480469 17.398438 L 5.332031 17.398438 L 14.453125 26.519531 C 14.558594 26.621094 14.609375 26.757812 14.609375 26.894531 C 14.609375 27.03125 14.558594 27.167969 14.453125 27.269531 C 14.351562 27.375 14.214844 27.425781 14.078125 27.425781 Z M 14.078125 27.425781 "/>
</g>
</svg>
